HIERARCHY
ROOT hip
{
	OFFSET 0.000000 0.000000 0.000000 
	CHANNELS 6 Xposition Yposition Zposition Xrotation Zrotation Yrotation
	JOINT abdomen
	{
		OFFSET 0.000000 3.402643 0.000000 
		CHANNELS 3 Xrotation Zrotation Yrotation
		JOINT chest
		{
			OFFSET 0.000000 8.438565 -0.680529 
			CHANNELS 3 Xrotation Zrotation Yrotation
			JOINT neck
			{
				OFFSET 0.000000 10.207942 -0.272212 
				CHANNELS 3 Xrotation Zrotation Yrotation
				JOINT head
				{
					OFFSET 0.000000 3.130431 0.000000 
					CHANNELS 3 Xrotation Zrotation Yrotation
					End Site
					{
						OFFSET 0.000000 3.130435 0.000000 
					}
				}
			}
			JOINT lCollar
			{
				OFFSET 3.470700 6.669187 -0.816635 
				CHANNELS 3 Yrotation Zrotation Xrotation
				JOINT lShldr
				{
					OFFSET 3.198488 0.000000 0.000000 
					CHANNELS 3 Zrotation Yrotation Xrotation
					JOINT lForeArm
					{
						OFFSET 10.139888 0.000000 0.000000 
						CHANNELS 3 Yrotation Zrotation Xrotation
						JOINT lHand
						{
							OFFSET 8.370511 0.000000 0.000000 
							CHANNELS 3 Zrotation Yrotation Xrotation
							End Site
							{
								OFFSET 4.083176 0.000000 0.000000 
							}
						}
					}
				}
			}
			JOINT rCollar
			{
				OFFSET -3.470700 6.669187 -0.816635 
				CHANNELS 3 Yrotation Zrotation Xrotation
				JOINT rShldr
				{
					OFFSET -3.198488 0.000000 0.000000 
					CHANNELS 3 Zrotation Yrotation Xrotation
					JOINT rForeArm
					{
						OFFSET -10.139888 0.000000 0.000000 
						CHANNELS 3 Yrotation Zrotation Xrotation
						JOINT rHand
						{
							OFFSET -8.370511 0.000000 0.000000 
							CHANNELS 3 Zrotation Yrotation Xrotation
							End Site
							{
								OFFSET -4.083176 0.000000 0.000000 
							}
						}
					}
				}
			}
		}
	}
	JOINT lThigh
	{
		OFFSET 5.308129 -1.633274 1.361059 
		CHANNELS 3 Xrotation Zrotation Yrotation
		JOINT lShin
		{
			OFFSET -2.041588 -20.007561 0.000000 
			CHANNELS 3 Xrotation Zrotation Yrotation
			JOINT lFoot
			{
				OFFSET 0.000000 -19.190928 -1.224953 
				CHANNELS 3 Xrotation Yrotation Zrotation
				End Site
				{
					OFFSET 0.000000 -2.449906 4.627600 
				}
			}
		}
	}
	JOINT rThigh
	{
		OFFSET -5.308129 -1.633274 1.361059 
		CHANNELS 3 Xrotation Zrotation Yrotation
		JOINT rShin
		{
			OFFSET 2.041588 -20.007561 0.000000 
			CHANNELS 3 Xrotation Zrotation Yrotation
			JOINT rFoot
			{
				OFFSET 0.000000 -19.190928 -1.224953 
				CHANNELS 3 Xrotation Yrotation Zrotation
				End Site
				{
					OFFSET 0.000000 -2.449906 4.627600 
				}
			}
		}
	}
}
MOTION
Frames: 16
Frame Time: 0.016667
-6.596186 44.021709 -2.079393 7.273340 3.962100 8.005410 -18.238400 2.997720 -1.315670 16.796900 0.116935 -0.202997 37.759499 -0.462166 -5.464680 19.960400 3.968210 -2.465400 2.000000 -2.000000 0.000000 -68.780602 34.171902 -162.578003 87.578598 -0.220625 0.136640 0.070587 -0.070226 -162.878998 -2.000000 2.000000 0.000000 18.182699 -24.928499 -146.781998 -84.805199 0.227228 0.136164 -0.057938 -0.023759 -124.861000 -26.903639 1.604335 -3.100092 34.860283 2.446860 2.616505 -19.861446 -5.275407 -0.885123 -12.864812 -2.959056 -1.136224 21.519663 -2.825754 -1.705345 -24.900297 1.664103 0.200603 
-6.333269 44.013992 -2.134213 7.631860 3.542640 8.746170 -18.544500 3.649830 -1.552090 16.552401 0.691667 -0.253490 37.737301 0.243049 -5.749560 19.985300 4.202500 -2.699120 2.000000 -2.000000 0.000000 -68.634003 34.398102 -161.884995 88.652901 -0.218064 0.136724 0.070135 -0.069290 -162.507996 -2.000000 2.000000 0.000000 18.871901 -23.618900 -152.007996 -84.395103 0.228202 0.136072 -0.056452 -0.015831 -127.741997 -27.380886 1.062791 -3.824744 33.872044 2.415458 2.577472 -20.897877 -4.119075 -0.621507 -12.937171 -2.934594 -1.297080 21.008455 -2.806925 -1.670568 -25.100897 1.393818 0.003700 
-6.070466 43.991608 -2.209267 7.853260 3.086070 9.273540 -18.795601 4.321310 -1.654040 16.219700 1.217210 -0.238768 37.731998 0.808616 -6.161200 20.007700 4.324090 -2.965560 2.000000 -2.000000 0.000000 -68.066902 34.556599 -160.880005 89.736801 -0.215477 0.136760 0.069654 -0.068278 -162.106995 -2.000000 2.000000 0.000000 20.126600 -22.044300 -157.610001 -83.682198 0.229894 0.135895 -0.055336 -0.007566 -130.720993 -27.768620 0.786704 -3.767059 33.424683 2.371563 2.573429 -21.413675 -3.156097 -0.334764 -13.028286 -2.828994 -1.335550 20.665501 -2.790223 -1.662989 -25.342859 1.234844 -0.143530 
-5.810773 43.957882 -2.281793 7.830510 2.621840 9.735510 -18.944201 5.073830 -1.789540 15.925300 1.868880 -0.239180 37.719501 1.151440 -6.625970 20.027700 4.342400 -3.232150 2.000000 -2.000000 0.000000 -67.333702 34.725201 -159.722000 90.957603 -0.212401 0.156272 0.069101 -0.067087 -161.639008 -2.000000 2.000000 0.000000 21.741199 -20.126699 -163.516998 -82.754402 0.232092 0.135633 -0.054688 0.000118 -133.475006 -27.956856 0.696146 -3.378862 33.553650 2.348997 2.574178 -21.256140 -2.614147 -0.201271 -12.967304 -2.619268 -1.294778 20.584715 -2.802520 -1.656071 -25.760630 1.013814 -0.285878 
-5.549059 43.910137 -2.348667 7.593310 2.158660 10.102300 -18.941200 5.876750 -1.929330 15.727400 2.617640 -0.240379 37.555099 1.663510 -6.958040 20.001499 4.474530 -3.459760 2.000000 -2.000000 0.000000 -66.375397 34.786701 -158.432999 92.236900 -0.209132 0.156180 0.068344 -0.065419 -160.983994 -2.000000 2.000000 0.000000 24.125999 -17.913700 -170.309006 -81.748596 0.234471 0.135310 -0.054432 0.006484 -135.750000 -27.933685 0.715530 -2.958386 34.134365 2.329107 2.615743 -20.797850 -2.731420 -0.316385 -12.683509 -2.421297 -1.475729 20.505747 -2.800688 -1.647204 -25.930016 0.891686 -0.411566 
-5.277976 43.843475 -2.419070 7.249250 1.685640 10.302500 -18.973101 6.723500 -2.035890 15.420500 3.423730 -0.238643 37.206699 2.485210 -7.057420 19.864700 4.872670 -3.632230 2.000000 -2.000000 0.000000 -65.153503 34.994900 -157.018005 93.535698 -0.205816 0.156013 0.067090 -0.062535 -159.860992 -2.000000 2.000000 0.000000 -152.944000 -164.701004 2.519960 -80.840401 0.236613 0.134982 -0.054447 0.003937 -138.328003 -27.722170 0.822627 -2.673409 34.833275 2.299986 2.661146 -20.186148 -3.104238 -0.522777 -12.467677 -2.232173 -1.883173 20.709070 -2.828010 -1.648903 -25.908438 0.985703 -0.383250 
-4.993737 43.767410 -2.488170 6.866930 1.270120 10.426600 -18.946199 7.489250 -2.025650 15.171800 4.083520 -0.188989 36.884800 3.282820 -7.308650 19.764700 5.166860 -3.852510 2.000000 -2.000000 0.000000 -63.334999 34.851898 -155.416000 94.981003 -0.202131 0.155738 0.065953 -0.059779 -158.796997 -2.000000 2.000000 0.000000 -149.488998 -167.707001 -4.855420 -80.205597 0.238107 0.134732 -0.055188 0.015889 -142.604996 -27.403837 0.817397 -2.733299 35.599377 2.283567 2.699287 -19.456184 -3.535019 -0.708692 -12.278911 -2.103225 -2.298395 20.952011 -2.853706 -1.649844 -25.782576 1.281869 -0.267141 
-4.698625 43.694569 -2.548001 6.465650 0.902428 10.571200 -18.888599 8.172540 -2.011550 15.001100 4.655860 -0.139153 36.685902 3.773430 -7.691250 19.718300 5.262210 -4.093380 2.000000 -2.000000 0.000000 -61.144699 34.415901 -153.813004 96.494698 -0.198280 0.155351 0.065172 -0.057795 -158.035004 -2.000000 2.000000 0.000000 34.158699 -8.838530 167.889008 -79.746597 0.239185 0.134541 -0.057393 0.030845 -148.005997 -27.081825 0.758850 -3.103386 36.522984 2.266689 2.762604 -18.699505 -4.114501 -0.950413 -11.930017 -2.012022 -2.517970 21.098745 -2.864749 -1.659375 -25.862103 1.509116 -0.194717 
-4.389538 43.622757 -2.593048 6.084280 0.563216 10.694900 -18.843399 8.859260 -1.988220 14.849500 5.198850 -0.088791 36.559299 4.225530 -7.997960 19.702499 5.394380 -4.292760 2.000000 -2.000000 0.000000 -58.817299 33.774799 -152.205002 97.900902 -0.194713 0.154900 0.064550 -0.056159 -157.410004 -2.000000 2.000000 0.000000 37.756802 -4.985010 161.091995 -79.600098 0.239529 0.134479 -0.059846 0.041446 -151.891998 -26.659782 0.723555 -3.455675 37.141720 2.251322 2.793826 -17.866707 -4.818229 -1.172702 -11.684006 -1.892119 -2.509400 21.427313 -2.917024 -1.673775 -26.204739 1.502991 -0.205352 
-4.058690 43.550674 -2.619267 5.752010 0.252628 10.650500 -18.847900 9.526020 -1.853640 14.688100 5.654000 0.016422 36.470402 4.687920 -8.358150 19.715799 5.516320 -4.540860 2.000000 -2.000000 0.000000 -56.196301 32.918999 -150.483994 99.317001 -0.191134 0.154357 0.064114 -0.064744 -156.960999 -2.000000 2.000000 0.000000 41.295799 -0.996973 155.026993 -79.502502 0.239758 0.134436 -0.063542 0.053382 -156.354996 -26.182899 0.702119 -3.737321 37.553825 2.253022 2.824540 -17.078259 -5.248538 -1.308663 -11.467944 -1.843325 -2.587219 21.669176 -2.954305 -1.686409 -26.278996 1.602390 -0.183473 
-3.706296 43.485428 -2.621952 5.488280 0.009721 10.420900 -18.609200 10.109500 -1.490160 14.842700 5.898490 0.250817 36.468201 5.240570 -9.010840 19.940800 5.490950 -4.866410 2.000000 -2.000000 0.000000 -53.242298 31.222900 -148.947998 100.694000 -0.187667 0.153745 0.064161 -0.064872 -157.009995 -2.000000 2.000000 0.000000 44.824600 3.361090 149.167999 -79.570801 0.239598 0.134466 -0.079050 0.067484 -161.794998 -25.708757 0.700756 -3.809156 37.828716 2.245779 2.835753 -16.469051 -5.334893 -1.312885 -11.263398 -1.933841 -2.826683 21.862497 -2.982989 -1.688980 -26.118071 1.888812 -0.062581 
-3.334243 43.423397 -2.608056 5.341820 -0.175018 10.188700 -18.649500 10.824100 -1.394830 14.776400 6.568290 0.343452 36.312801 5.660500 -9.275890 19.938101 5.726010 -5.092750 2.000000 -2.000000 0.000000 -50.670200 30.054100 -147.455994 101.875999 -0.184705 0.153154 0.064407 -0.055774 -157.264008 -2.000000 2.000000 0.000000 47.729698 7.715880 144.625000 -79.697800 0.239300 0.134521 -0.086144 0.081049 -167.263000 -25.196106 0.674852 -3.753853 37.573227 2.248487 2.812888 -15.708199 -5.005247 -1.168030 -11.195802 -2.108753 -2.992842 22.121645 -3.035967 -1.695385 -26.074192 2.136904 0.033867 
-2.943969 43.356995 -2.593216 5.205180 -0.350113 10.046200 -18.856300 11.570800 -1.468310 14.510300 7.381040 0.343623 36.066200 6.148600 -9.258010 19.854300 6.179960 -5.236990 2.000000 -2.000000 0.000000 -48.166302 28.973301 -145.822998 102.783997 -0.182436 0.152658 0.064608 -0.056312 -157.468994 -2.000000 2.000000 0.000000 50.928600 11.424000 140.960999 -80.430199 0.237578 0.134822 179.906006 179.897995 7.814690 -24.756241 0.582937 -3.857609 37.288921 2.255942 2.811615 -14.960522 -4.137808 -0.893731 -11.080092 -2.296321 -2.941730 22.278194 -3.044393 -1.694946 -26.125698 2.264141 0.040434 
-2.536945 43.287231 -2.580174 5.088050 -0.457176 9.949450 -19.073900 12.150600 -1.432620 14.216500 7.930340 0.381814 35.867699 6.379880 -9.518760 19.731899 6.343900 -5.440360 2.000000 -2.000000 0.000000 -45.222198 27.404499 -144.057999 103.497002 -0.180661 0.152243 0.064946 -0.057207 -157.809998 -2.000000 2.000000 0.000000 53.737202 15.707900 137.363007 -80.020103 0.238543 0.134656 179.908997 179.897995 3.390840 -24.328173 0.368727 -3.961601 36.923721 2.277203 2.767405 -15.538887 -4.026624 -0.935090 -11.086351 -2.518479 -2.612508 22.623604 -3.113062 -1.693257 -26.395691 2.185311 -0.006765 
-2.112958 43.220573 -2.570962 5.029480 -0.486401 9.927820 -19.311300 12.470200 -1.169870 13.909600 8.003190 0.526423 35.437500 6.786980 -10.085400 19.388500 6.364550 -5.749030 2.000000 -2.000000 0.000000 -41.613400 25.122900 -142.188004 104.083000 -0.179207 0.151886 0.065320 -0.058177 -158.181000 -2.000000 2.000000 0.000000 57.424500 18.740900 134.018997 -80.449699 0.237532 0.134830 179.899994 179.888000 -1.052520 -24.027493 -0.003734 -3.956383 36.679012 2.274668 2.761925 -15.967294 -4.106622 -1.040905 -11.064713 -2.819342 -2.093709 22.942520 -3.164309 -1.709004 -26.830748 1.954556 -0.130741 
-1.674783 43.166527 -2.572344 4.961130 -0.505910 10.053700 -19.324301 12.809000 -1.102140 13.855900 8.264270 0.585472 34.777199 7.411010 -10.394500 19.101299 6.600310 -5.955340 2.000000 -2.000000 0.000000 -38.738499 22.653999 -141.233002 104.542000 -0.178070 0.151596 0.065191 -0.057846 -158.054993 -2.000000 2.000000 0.000000 60.624699 22.153500 131.306000 -80.615799 0.237142 0.134895 179.891006 179.869003 -5.749770 -23.851374 -0.467001 -3.881296 36.592171 2.252635 2.757084 -16.303137 -4.059050 -1.127942 -11.016107 -3.150255 -1.592279 23.278555 -3.229449 -1.707541 -27.388273 1.542457 -0.356803 
